<svg viewBox="98.96774193548384 25.200000000000045 318.7096774193549 655.1999999999998" fill="none" xmlns="http://www.w3.org/2000/svg" xmlns:xlink="http://www.w3.org/1999/xlink" overflow="visible" width="318.7096774193549px" height="655.1999999999998px"><g id="Master/Profile Character/Adult"><g id="Lower Body Adult" transform="translate(-68 301) scale(1 1)"><g id="Lower Body Adult/Jeans"><g id="Group 89"><path id="Fill 1" fill-rule="evenodd" clip-rule="evenodd" d="M314.51 10.2103C314.51 10.3703 314.38 10.4903 314.23 10.4903L278.41 10.6903L273.75 10.7203C273.59 10.7203 273.47 10.6003 273.46 10.4403C273.46 10.2903 273.59 10.1603 273.74 10.1603L278.37 10.1303L314.22 9.9303C314.38 9.9303 314.5 10.0603 314.51 10.2103" fill="#f9dbcf"/><path id="Fill 3" fill-rule="evenodd" clip-rule="evenodd" d="M230.35 237.9V237.91C230.33 238.03 230.3 238.13 230.281 238.24C227.26 237.94 224.29 237.41 221.33 236.82C217.86 236.1 214.411 235.29 211.02 234.15C214.58 234.42 218.08 235.03 221.56 235.72C224.51 236.34 227.451 237.01 230.35 237.9" fill="#f9dbcf"/><path id="Fill 5" fill-rule="evenodd" clip-rule="evenodd" d="M206.6 345.6V345.61C206.571 345.79 206.531 345.95 206.491 346.12C206.42 346.12 206.34 346.13 206.27 346.13L201.52 346.29C198.35 346.39 195.18 346.41 192.01 346.42C188.84 346.4 185.67 346.39 182.51 346.29C181.911 346.27 181.31 346.26 180.71 346.24C180.73 345.99 180.76 345.74 180.781 345.48C181.36 345.46 181.93 345.45 182.51 345.43C185.67 345.32 188.84 345.31 192.01 345.3C195.18 345.31 198.35 345.32 201.52 345.43L206.27 345.58C206.38 345.59 206.491 345.59 206.6 345.6" fill="#f9dbcf"/><path id="Fill 7" fill-rule="evenodd" clip-rule="evenodd" d="M279.359 24.0902V46.4802C279.359 46.6302 279.229 46.7602 279.07 46.7602C279.049 46.7602 279.04 46.7602 279.019 46.7502L273.899 54.8602L267.2 85.6502C267.179 85.1002 267.149 84.5702 267.12 84.0302L273.62 54.7602C273.62 54.7502 273.63 54.7302 273.639 54.7202L278.849 46.6402C278.809 46.5902 278.79 46.5402 278.79 46.4802V24.0902C278.79 23.9302 278.92 23.8102 279.07 23.8102C279.149 23.8102 279.229 23.8402 279.29 23.9002C279.33 23.9502 279.359 24.0102 279.359 24.0902" fill="#f9dbcf"/><path id="Fill 9" fill-rule="evenodd" clip-rule="evenodd" d="M301.52 13.4305V13.4405C301.51 13.7505 301.27 13.9905 300.96 13.9905H282.21V17.7705H284.321C284.63 17.7705 284.88 18.0205 284.88 18.3405C284.88 18.6505 284.63 18.9005 284.321 18.9005H278.96C278.661 18.8805 278.43 18.6405 278.43 18.3405C278.43 18.0605 278.621 17.8305 278.88 17.7805C278.911 17.7705 278.951 17.7705 278.991 17.7705H281.09V13.4305C281.09 13.1205 281.34 12.8705 281.65 12.8705H300.96C301.27 12.8705 301.52 13.1205 301.52 13.4305" fill="#EDFBFB"/><path id="Fill 11" fill-rule="evenodd" clip-rule="evenodd" d="M309.12 13.4403V23.2603H301.519V23.2503C301.519 22.9403 301.269 22.6903 300.96 22.6903H282.21V18.9003H284.32C284.63 18.9003 284.88 18.6503 284.88 18.3403C284.88 18.0203 284.63 17.7703 284.32 17.7703H282.21V13.9903H300.96C301.269 13.9903 301.51 13.7503 301.519 13.4403H309.12Z" fill="#f9dbcf"/><path id="Fill 13" fill-rule="evenodd" clip-rule="evenodd" d="M309.44 228.65C307.001 229.51 304.531 230.25 302.05 230.98C299.581 231.71 297.081 232.36 294.581 233.01C292.081 233.63 289.581 234.25 287.05 234.78L283.27 235.58C281.991 235.81 280.73 236.08 279.451 236.27C280.67 235.83 281.9 235.46 283.13 235.05L286.84 233.95C289.31 233.21 291.81 232.56 294.31 231.92C296.81 231.3 299.31 230.68 301.84 230.14C304.36 229.59 306.89 229.06 309.44 228.65" fill="#f9dbcf"/><path id="Fill 15" fill-rule="evenodd" clip-rule="evenodd" d="M317.6 139.89C317.14 155.25 316.71 167.73 316.34 174.52L317.35 145.77L317.6 139.89Z" fill="#f9dbcf"/><path id="Fill 17" fill-rule="evenodd" clip-rule="evenodd" d="M309.25 342.35V342.36C308.91 349.63 308.7 354.02 308.67 354.79L308.28 354.91H278.82C278.82 354.81 278.6 350.37 278.23 342.59C278.689 342.61 279.14 342.63 279.6 342.65C280.33 342.67 281.07 342.69 281.8 342.71C282.25 342.72 282.689 342.74 283.14 342.74C285.859 342.82 288.59 342.83 291.31 342.84C294.48 342.83 297.64 342.81 300.81 342.71L305.57 342.56C306.08 342.53 306.59 342.5 307.1 342.47C307.81 342.44 308.53 342.4 309.25 342.35" fill="#96DAD5"/><path id="Fill 19" fill-rule="evenodd" clip-rule="evenodd" d="M307.12 342.09C307.12 342.22 307.109 342.34 307.099 342.47C306.59 342.5 306.08 342.53 305.57 342.56L300.809 342.71C297.64 342.81 294.479 342.83 291.309 342.84C288.59 342.83 285.859 342.82 283.14 342.74C282.689 342.74 282.25 342.72 281.8 342.71C281.07 342.69 280.33 342.67 279.6 342.65C279.59 342.41 279.57 342.17 279.559 341.92C280.309 341.89 281.05 341.87 281.8 341.85C283.109 341.81 284.42 341.78 285.74 341.76C287.59 341.74 289.45 341.73 291.309 341.72C294.479 341.73 297.64 341.75 300.809 341.85L305.57 342C306.09 342.03 306.599 342.06 307.12 342.09" fill="#f9dbcf"/><path id="Fill 21" fill-rule="evenodd" clip-rule="evenodd" d="M208.41 345.701C208.41 345.811 208.399 345.921 208.399 346.021C207.76 346.051 207.13 346.081 206.49 346.121C206.42 346.121 206.34 346.131 206.269 346.131L201.519 346.291C198.349 346.391 195.18 346.411 192.01 346.421C188.84 346.401 185.67 346.391 182.51 346.291C181.91 346.271 181.309 346.261 180.71 346.241C179.809 346.211 178.91 346.181 178.019 346.141C178.01 345.951 178 345.771 177.99 345.581C178.92 345.541 179.849 345.511 180.78 345.481C181.359 345.461 181.93 345.451 182.51 345.431C185.67 345.321 188.84 345.311 192.01 345.301C195.18 345.311 198.349 345.321 201.519 345.431L206.269 345.581C206.38 345.591 206.49 345.591 206.599 345.601C207.2 345.641 207.809 345.671 208.41 345.701" fill="#2A4D52"/><path id="Fill 23" fill-rule="evenodd" clip-rule="evenodd" d="M178.95 370.49C178.939 369.62 178.76 365.47 178.439 358.65V355.33L207.88 354.56L207.439 358L205.79 358.51H205.78L201.81 359.73C201.51 359.82 201.34 360.13 201.43 360.42C201.51 360.67 201.729 360.82 201.97 360.82C202.03 360.82 202.08 360.82 202.14 360.79L207.62 359.11L209.42 358.56L214.479 360.23L212.7 360.78H212.689L206.59 362.65C206.29 362.74 206.13 363.06 206.22 363.36C206.28 363.59 206.51 363.75 206.76 363.75C206.8 363.75 206.859 363.75 206.91 363.73L214.53 361.39L216.33 360.84L243.35 369.73C244.59 370.31 244.16 372.18 242.79 372.14L178.95 370.49Z" fill="#2A4D52"/><path id="Fill 25" fill-rule="evenodd" clip-rule="evenodd" d="M207.44 354.63L207.88 354.49C207.86 354.57 207.85 354.61 207.85 354.62L207.44 354.63Z" fill="#2A4D52"/><path id="Fill 27" fill-rule="evenodd" clip-rule="evenodd" d="M209.42 355.19L208 354.73C208 354.67 208 354.58 207.99 354.46L207.88 354.49C207.91 354.35 207.96 354.11 208.03 353.76C208.03 353.75 208.04 353.73 208.04 353.72C208.02 354.24 208.01 354.57 208.01 354.72L209.42 355.19Z" fill="#2A4D52"/><path id="Fill 29" fill-rule="evenodd" clip-rule="evenodd" d="M209.42 355.19L207.62 355.74L202.14 357.42C202.08 357.45 202.03 357.45 201.97 357.45C201.73 357.45 201.51 357.3 201.43 357.05C201.34 356.76 201.51 356.45 201.81 356.36L205.78 355.14H205.79L207.44 354.63L207.85 354.62C207.85 354.61 207.859 354.57 207.88 354.49L207.99 354.46C208 354.58 208 354.67 208 354.73L209.42 355.19Z" fill="#EDFBFB"/><path id="Fill 31" fill-rule="evenodd" clip-rule="evenodd" d="M207.88 354.49C207.859 354.57 207.85 354.61 207.85 354.62L207.44 354.63L207.88 354.49Z" fill="#EDFBFB"/><path id="Fill 33" fill-rule="evenodd" clip-rule="evenodd" d="M216.33 357.471L214.53 358.021L206.91 360.361C206.859 360.381 206.8 360.381 206.76 360.381C206.51 360.381 206.28 360.221 206.22 359.991C206.13 359.691 206.29 359.371 206.59 359.281L212.689 357.411H212.7L214.479 356.861L216.33 357.471Z" fill="#EDFBFB"/><path id="Fill 35" fill-rule="evenodd" clip-rule="evenodd" d="M279.689 370.49C279.679 369.6 279.321 361.96 279 354.91C279 354.91 308.5 354.91 308.5 354.91C308.477 354.913 308.28 358.28 308.28 358.28L307.099 358.64L303.559 359.73C303.25 359.82 303.09 360.13 303.179 360.42C303.25 360.67 303.479 360.82 303.719 360.82C303.769 360.82 303.83 360.82 303.88 360.79L308.91 359.25H308.929L310.639 358.72H310.649L315.71 360.39L314 360.91H313.99L308.33 362.65C308.04 362.74 307.87 363.06 307.96 363.36C308.03 363.59 308.25 363.75 308.5 363.75C308.55 363.75 308.599 363.75 308.66 363.73L315.84 361.52H315.849L317.57 360.99H317.58L344.09 369.73C345.34 370.31 344.899 372.18 343.53 372.14L279.689 370.49Z" fill="#2A4D52"/><path id="Fill 38" fill-rule="evenodd" clip-rule="evenodd" d="M308.28 354.91L308.67 354.79C308.66 354.87 308.66 354.91 308.66 354.91H308.28Z" fill="#2A4D52"/><path id="Fill 40" fill-rule="evenodd" clip-rule="evenodd" d="M309.56 337.98C309.48 339.48 309.411 340.89 309.34 342.21C309.34 342.26 309.34 342.31 309.331 342.35C309.121 346.48 308.96 349.67 308.871 351.79C308.79 353.43 308.75 354.43 308.75 354.72L308.821 354.74L308.67 354.79C308.701 354.02 308.911 349.63 309.25 342.36V342.35C308.531 342.4 307.81 342.44 307.1 342.47C306.59 342.5 306.081 342.53 305.571 342.56L300.81 342.71C297.64 342.81 294.48 342.83 291.31 342.84C288.59 342.83 285.86 342.82 283.14 342.74C283.98 342.4 284.85 342.07 285.741 341.76C287.59 341.74 289.451 341.73 291.31 341.72C294.48 341.73 297.64 341.75 300.81 341.85L305.571 342C306.09 342.03 306.6 342.06 307.121 342.09C307.831 342.12 308.54 342.16 309.26 342.21C309.321 340.9 309.38 339.49 309.451 337.99V337.98H309.56Z" fill="#2A4D52"/><path id="Fill 42" fill-rule="evenodd" clip-rule="evenodd" d="M310.64 355.35L308.93 355.88H308.911L303.88 357.42C303.83 357.45 303.77 357.45 303.72 357.45C303.48 357.45 303.25 357.3 303.18 357.05C303.09 356.76 303.25 356.45 303.56 356.36L307.1 355.27L308.281 354.91H308.661C308.661 354.91 308.661 354.87 308.67 354.79L308.821 354.74L310.64 355.35Z" fill="#EDFBFB"/><path id="Fill 44" fill-rule="evenodd" clip-rule="evenodd" d="M308.67 354.79C308.66 354.87 308.66 354.91 308.66 354.91H308.28L308.67 354.79Z" fill="#EDFBFB"/><path id="Fill 46" fill-rule="evenodd" clip-rule="evenodd" d="M317.57 357.62L315.849 358.15H315.84L308.66 360.36C308.599 360.38 308.549 360.38 308.5 360.38C308.25 360.38 308.03 360.22 307.96 359.99C307.87 359.69 308.04 359.37 308.33 359.28L313.99 357.54H314L315.71 357.02H315.719L317.57 357.62Z" fill="#EDFBFB"/><path id="Fill 48" fill-rule="evenodd" clip-rule="evenodd" d="M314.51 10.2103C314.51 10.3703 314.38 10.4903 314.23 10.4903L278.41 10.6903L273.75 10.7203C273.59 10.7203 273.47 10.6003 273.46 10.4403C273.46 10.2903 273.59 10.1603 273.74 10.1603L278.37 10.1303L314.22 9.9303C314.38 9.9303 314.5 10.0603 314.51 10.2103" fill="#96DAD5"/><path id="Fill 50" fill-rule="evenodd" clip-rule="evenodd" d="M309.44 228.65C307.001 229.51 304.531 230.25 302.05 230.98C299.581 231.71 297.081 232.36 294.581 233.01C292.081 233.63 289.581 234.25 287.05 234.78L283.27 235.58C281.991 235.81 280.73 236.08 279.451 236.27C280.67 235.83 281.9 235.46 283.13 235.05L286.84 233.95C289.31 233.21 291.81 232.56 294.31 231.92C296.81 231.3 299.31 230.68 301.84 230.14C304.36 229.59 306.89 229.06 309.44 228.65" fill="#96DAD5"/><path id="Fill 52" fill-rule="evenodd" clip-rule="evenodd" d="M279.359 24.0902V46.4802C279.359 46.6302 279.229 46.7602 279.07 46.7602C279.049 46.7602 279.04 46.7602 279.019 46.7502L273.899 54.8602L267.2 85.6502V85.6802L266.08 90.8102C266.049 90.2302 266.03 89.6502 266 89.0802V89.0502L267.12 84.0302L273.62 54.7602C273.62 54.7502 273.63 54.7302 273.639 54.7202L278.849 46.6402C278.809 46.5902 278.79 46.5402 278.79 46.4802V24.0902C278.79 23.9302 278.92 23.8102 279.07 23.8102C279.149 23.8102 279.229 23.8402 279.29 23.9002C279.33 23.9502 279.359 24.0102 279.359 24.0902" fill="#96DAD5"/><path id="Fill 54" fill-rule="evenodd" clip-rule="evenodd" d="M308.67 354.79C308.66 354.87 308.66 354.91 308.66 354.91H308.28L308.67 354.79Z" fill="#96DAD5"/><path id="Fill 56" fill-rule="evenodd" clip-rule="evenodd" d="M309.26 342.21C309.26 342.26 309.25 342.3 309.25 342.35C308.531 342.4 307.81 342.44 307.1 342.47C306.59 342.5 306.08 342.53 305.571 342.56L300.81 342.71C297.64 342.81 294.48 342.83 291.31 342.84C288.59 342.83 285.86 342.82 283.14 342.74C282.69 342.74 282.25 342.72 281.8 342.71C281.071 342.69 280.33 342.67 279.6 342.65C279.14 342.63 278.69 342.61 278.23 342.59C278.22 342.38 278.21 342.18 278.2 341.97C278.65 341.95 279.11 341.93 279.56 341.92C280.31 341.89 281.05 341.87 281.8 341.85C283.11 341.81 284.42 341.78 285.74 341.76C287.59 341.74 289.45 341.73 291.31 341.72C294.48 341.73 297.64 341.75 300.81 341.85L305.571 342C306.09 342.03 306.6 342.06 307.12 342.09C307.83 342.12 308.54 342.16 309.26 342.21" fill="#96DAD5"/><path id="Fill 58" fill-rule="evenodd" clip-rule="evenodd" d="M320.02 84.7405C318.75 122.141 316.97 166.541 315.21 208.431L315.43 200.321L316.071 182.141L316.31 175.16L316.331 174.681L316.34 174.521L317.35 145.771L317.6 139.891L317.61 139.611L318.911 109.411L319.69 91.2205L320.02 84.7405Z" fill="#96DAD5"/><path id="Fill 60" fill-rule="evenodd" clip-rule="evenodd" d="M309.12 13.4403V23.2603H301.519V23.2503C301.519 22.9403 301.269 22.6903 300.96 22.6903H282.21V18.9003H284.32C284.63 18.9003 284.88 18.6503 284.88 18.3403C284.88 18.0203 284.63 17.7703 284.32 17.7703H282.21V13.9903H300.96C301.269 13.9903 301.51 13.7503 301.519 13.4403H309.12Z" fill="#96DAD5"/><path id="Fill 62" fill-rule="evenodd" clip-rule="evenodd" d="M278.41 10.6903L273.75 10.7203C273.59 10.7203 273.47 10.6003 273.46 10.4403C273.46 10.2903 273.59 10.1603 273.74 10.1603L278.37 10.1303L278.41 10.6903Z" fill="#96DAD5"/><path id="Fill 64" fill-rule="evenodd" clip-rule="evenodd" d="M294.58 233.01C292.08 233.63 289.58 234.25 287.05 234.78L283.27 235.58C281.99 235.81 280.73 236.08 279.45 236.27C280.67 235.83 281.9 235.46 283.13 235.05L286.84 233.95C289.31 233.21 291.81 232.56 294.31 231.92C296.81 231.3 299.31 230.68 301.84 230.14C304.36 229.59 306.89 229.06 309.44 228.65C307 229.51 304.53 230.25 302.05 230.98C299.58 231.71 297.08 232.36 294.58 233.01ZM221.33 236.82C217.86 236.1 214.41 235.29 211.02 234.15C214.58 234.42 218.08 235.03 221.56 235.72C224.51 236.34 227.45 237.01 230.35 237.9V237.91C230.86 238.06 231.36 238.22 231.87 238.39C231.34 238.35 230.81 238.3 230.28 238.24C227.26 237.94 224.29 237.41 221.33 236.82ZM320.84 13.4403C320.96 7.9703 320.48 3.3903 320.549 0.00029973H235.949C234.588 -0.197189 231.615 3.43603 231.615 3.43851C231.615 3.441 227.386 13.4403 227.386 13.2603C221.986 27.3638 214.96 54.7302 210.02 85.1003C205.08 115.47 182.68 296.64 177.2 345.62C177.46 345.61 177.72 345.59 177.99 345.58C178.92 345.54 179.85 345.51 180.78 345.48C181.36 345.46 181.93 345.45 182.51 345.43C185.67 345.32 188.84 345.31 192.01 345.3C195.18 345.31 198.35 345.32 201.52 345.43L206.27 345.58C206.38 345.59 206.49 345.59 206.6 345.6C207.2 345.64 207.81 345.67 208.41 345.7C208.86 345.72 209.3 345.74 209.74 345.77L214.96 321.47L223.26 283.35L228.16 260.88L229.7 253.79C241.51 199.35 266.08 90.8103 266.08 90.8103V90.8303C270.01 172.19 276.22 301.02 278.2 341.97C278.65 341.95 279.11 341.93 279.56 341.92C280.31 341.89 281.05 341.87 281.8 341.85C283.11 341.81 284.42 341.78 285.74 341.76C287.59 341.74 289.45 341.73 291.31 341.72C294.48 341.73 297.64 341.75 300.81 341.85L305.571 342C306.09 342.03 306.6 342.06 307.12 342.09C307.83 342.12 308.54 342.16 309.26 342.21C309.321 340.9 309.38 339.49 309.45 337.99V337.98C310.62 312.91 312.9 262.97 315.19 208.79L315.2 208.6L315.21 208.43L315.43 200.32L316.071 182.14L316.31 175.16L316.33 174.68L316.34 174.52L317.35 145.77L317.6 139.89L317.61 139.61L318.91 109.41L319.69 91.2203L320.02 84.7403V84.6903C320.84 60.3803 321.44 39.0303 321.69 23.2603L320.84 13.4403Z" fill="#96DAD5"/><path id="Fill 66" fill-rule="evenodd" clip-rule="evenodd" d="M207.88 354.49C207.859 354.57 207.85 354.61 207.85 354.62L207.44 354.63L207.88 354.49Z" fill="#96DAD5"/><path id="Fill 68" fill-rule="evenodd" clip-rule="evenodd" d="M228.16 260.88C219.88 299.09 212.96 331 209.76 345.78C209.75 345.84 209.74 345.9 209.72 345.95C209.57 346.65 209.43 347.31 209.29 347.93L209.71 345.95C209.28 345.97 208.84 346 208.399 346.02C207.76 346.05 207.13 346.08 206.49 346.12C206.42 346.12 206.34 346.13 206.269 346.13L201.519 346.29C198.349 346.39 195.18 346.41 192.01 346.42C188.84 346.4 185.67 346.39 182.51 346.29C181.91 346.27 181.309 346.26 180.71 346.24C179.809 346.21 178.91 346.18 178.019 346.14C177.729 346.13 177.439 346.11 177.149 346.1C177.17 345.94 177.18 345.78 177.2 345.62C177.46 345.61 177.72 345.59 177.99 345.58C178.92 345.54 179.849 345.51 180.78 345.48C181.359 345.46 181.93 345.45 182.51 345.43C185.67 345.32 188.84 345.31 192.01 345.3C195.18 345.31 198.349 345.32 201.519 345.43L206.269 345.58C206.38 345.59 206.49 345.59 206.599 345.6C207.2 345.64 207.809 345.67 208.41 345.7C208.859 345.72 209.3 345.74 209.74 345.77L214.96 321.47L223.26 283.35L228.16 260.88Z" fill="#96DAD5"/><path id="Fill 70" fill-rule="evenodd" clip-rule="evenodd" d="M231.87 238.39C231.34 238.35 230.809 238.3 230.28 238.24C227.26 237.94 224.29 237.41 221.33 236.82C217.859 236.1 214.41 235.29 211.019 234.15C214.58 234.42 218.08 235.03 221.559 235.72C224.51 236.34 227.45 237.01 230.349 237.9V237.91C230.859 238.06 231.359 238.22 231.87 238.39" fill="#96DAD5"/><path id="Fill 72" fill-rule="evenodd" clip-rule="evenodd" d="M240 3.4403V13.2603H227.386C227.386 13.4403 231.514 3.4403 231.514 3.4403H240Z" fill="#672448"/><path id="Fill 74" fill-rule="evenodd" clip-rule="evenodd" d="M242.25 13.261H273.74V3.441H242.25V13.261Z" fill="#672448"/><path id="Fill 76" fill-rule="evenodd" clip-rule="evenodd" d="M278.43 8.3402C278.43 8.6402 278.66 8.8802 278.96 8.9002H281.09V13.2602H275.991V3.4402H281.09V7.7702H278.991C278.951 7.7702 278.91 7.7702 278.88 7.7802C278.62 7.8302 278.43 8.0602 278.43 8.3402" fill="#672448"/><path id="Fill 77" fill-rule="evenodd" clip-rule="evenodd" d="M301.52 13.2503V13.2603C301.51 13.5703 301.27 13.8103 300.96 13.8103H281.65C281.34 13.8103 281.1 13.5703 281.09 13.2603V8.9003H282.21V12.6903H300.96C301.27 12.6903 301.52 12.9403 301.52 13.2503" fill="#EDFBFB"/><path id="Fill 78" fill-rule="evenodd" clip-rule="evenodd" d="M309.12 3.4403V13.2603H301.519V13.2503C301.519 12.9403 301.269 12.6903 300.96 12.6903H282.21V8.9003H284.32C284.63 8.9003 284.88 8.6503 284.88 8.3403C284.88 8.0203 284.63 7.7703 284.32 7.7703H282.21V3.9903H300.96C301.269 3.9903 301.51 3.7503 301.519 3.4403H309.12Z" fill="#672448"/><path id="Fill 79" fill-rule="evenodd" clip-rule="evenodd" d="M321.8 3.4403C321.78 6.4003 321.74 9.6903 321.69 13.2603H311.37V3.4403H321.8Z" fill="#672448"/><path id="Fill 80" fill-rule="evenodd" clip-rule="evenodd" d="M314.51 10.2103C314.51 10.3703 314.38 10.4903 314.23 10.4903L278.41 10.6903L273.75 10.7203C273.59 10.7203 273.47 10.6003 273.46 10.4403C273.46 10.2903 273.59 10.1603 273.74 10.1603L278.37 10.1303L314.22 9.9303C314.38 9.9303 314.5 10.0603 314.51 10.2103" fill="#2A4D52"/><path id="Fill 81" fill-rule="evenodd" clip-rule="evenodd" d="M209.71 345.951L209.29 347.931L208.75 350.441L208.33 352.381L208.07 353.581L208.04 353.701V353.721C208.04 353.731 208.03 353.751 208.03 353.761C207.96 354.111 207.91 354.351 207.88 354.491L207.439 354.631L204.859 354.691L179.859 355.251L178.439 355.281L176.12 355.331C176.12 355.321 176.49 352.001 177.149 346.101C177.439 346.111 177.73 346.131 178.02 346.141C178.91 346.181 179.81 346.211 180.71 346.241C181.31 346.261 181.91 346.271 182.51 346.291C185.67 346.391 188.84 346.401 192.01 346.421C195.18 346.411 198.35 346.391 201.52 346.291L206.27 346.131C206.34 346.131 206.42 346.121 206.49 346.121C207.13 346.081 207.76 346.051 208.399 346.021C208.84 346.001 209.28 345.971 209.71 345.951" fill="#96DAD5"/><path id="Fill 82" fill-rule="evenodd" clip-rule="evenodd" d="M279.18 46.4603C279.18 46.4903 279.18 46.5103 279.16 46.5303L279.02 46.7503L273.9 54.8603L267.201 85.6503V85.6803L266.08 90.8103V90.8303L257.33 131.07L240.65 207.29L223.781 283.47L215.33 321.55L209.84 345.78L209.8 345.94L208.071 353.58L208.33 352.38L208.75 350.44L209.29 347.93L209.71 345.95L209.741 345.77L214.96 321.47L223.26 283.35L228.16 260.88L229.7 253.79L239.88 207.12L256.71 130.93L266 89.0803V89.0503L267.12 84.0303L273.62 54.7603C273.62 54.7503 273.63 54.7303 273.64 54.7203L278.85 46.6403L278.97 46.4603L278.79 45.2603V43.9603L279.18 46.4603Z" fill="#2A4D52"/><path id="Fill 83" fill-rule="evenodd" clip-rule="evenodd" d="M279.36 24.0902V46.4802C279.36 46.6302 279.23 46.7602 279.071 46.7602C279.05 46.7602 279.041 46.7602 279.02 46.7502C278.951 46.7402 278.881 46.7002 278.85 46.6402C278.81 46.5902 278.791 46.5402 278.791 46.4802V24.0902C278.791 23.9302 278.921 23.8102 279.071 23.8102C279.15 23.8102 279.23 23.8402 279.291 23.9002C279.331 23.9502 279.36 24.0102 279.36 24.0902" fill="#2A4D52"/><path id="Fill 84" fill-rule="evenodd" clip-rule="evenodd" d="M309.44 228.65C307.001 229.51 304.531 230.25 302.05 230.98C299.581 231.71 297.081 232.36 294.581 233.01C292.081 233.63 289.581 234.25 287.05 234.78L283.27 235.58C281.991 235.81 280.73 236.08 279.451 236.27C280.67 235.83 281.9 235.46 283.13 235.05L286.84 233.95C289.31 233.21 291.81 232.56 294.31 231.92C296.81 231.3 299.31 230.68 301.84 230.14C304.36 229.59 306.89 229.06 309.44 228.65" fill="#2A4D52"/><path id="Fill 85" fill-rule="evenodd" clip-rule="evenodd" d="M231.87 238.39C231.34 238.35 230.809 238.3 230.28 238.24C227.26 237.94 224.29 237.41 221.33 236.82C217.859 236.1 214.41 235.29 211.019 234.15C214.58 234.42 218.08 235.03 221.559 235.72C224.51 236.34 227.45 237.01 230.349 237.9V237.91C230.859 238.06 231.359 238.22 231.87 238.39" fill="#2A4D52"/><path id="Fill 86" fill-rule="evenodd" clip-rule="evenodd" d="M320.61 73.0403L320.1 91.2203L319.47 109.41L318.19 145.77L316.631 182.14L315.84 200.32L314.93 218.51L315.19 208.79L315.201 208.6L315.211 208.43L315.43 200.32L316.071 182.14L316.31 175.16L316.331 174.68L316.34 174.52L317.35 145.77L317.6 139.89L317.61 139.61L318.911 109.41L319.69 91.2203L320.02 84.7403V84.6903L320.61 73.0403Z" fill="#2A4D52"/><path id="Fill 87" fill-rule="evenodd" clip-rule="evenodd" d="M211.02 345.86C210.621 345.89 210.21 345.92 209.8 345.94C209.781 345.94 209.75 345.95 209.72 345.95H209.71C209.281 345.97 208.84 346 208.4 346.02C207.76 346.05 207.13 346.08 206.491 346.12C206.42 346.12 206.34 346.13 206.27 346.13L201.52 346.29C198.35 346.39 195.18 346.41 192.01 346.42C188.84 346.4 185.67 346.39 182.51 346.29C181.911 346.27 181.31 346.26 180.71 346.24C179.81 346.21 178.911 346.18 178.02 346.14C177.73 346.13 177.44 346.11 177.15 346.1C175.76 346.04 174.38 345.96 173 345.86C174.4 345.76 175.8 345.68 177.201 345.62C177.46 345.61 177.72 345.59 177.991 345.58C178.92 345.54 179.85 345.51 180.781 345.48C181.36 345.46 181.93 345.45 182.51 345.43C185.67 345.32 188.84 345.31 192.01 345.3C195.18 345.31 198.35 345.32 201.52 345.43L206.27 345.58C206.38 345.59 206.491 345.59 206.6 345.6C207.201 345.64 207.81 345.67 208.411 345.7C208.86 345.72 209.3 345.74 209.741 345.77C209.75 345.77 209.76 345.78 209.76 345.78C209.791 345.77 209.821 345.77 209.84 345.78C210.241 345.8 210.63 345.83 211.02 345.86" fill="#2A4D52"/><path id="Fill 88" fill-rule="evenodd" clip-rule="evenodd" d="M310.32 342.281C309.99 342.311 309.66 342.331 309.33 342.351C309.299 342.351 309.28 342.361 309.25 342.351C308.53 342.401 307.809 342.441 307.099 342.471C306.59 342.501 306.08 342.531 305.57 342.561L300.809 342.711C297.639 342.811 294.479 342.831 291.309 342.841C288.59 342.831 285.859 342.821 283.139 342.741C282.689 342.741 282.25 342.721 281.8 342.711C281.07 342.691 280.33 342.671 279.599 342.651C279.139 342.631 278.689 342.611 278.229 342.591C276.259 342.521 274.28 342.421 272.3 342.281C274.269 342.141 276.24 342.041 278.2 341.971C278.649 341.951 279.109 341.931 279.559 341.921C280.309 341.891 281.05 341.871 281.8 341.851C283.109 341.811 284.42 341.781 285.74 341.761C287.59 341.741 289.45 341.731 291.309 341.721C294.479 341.731 297.639 341.751 300.809 341.851L305.57 342.001C306.09 342.031 306.599 342.061 307.12 342.091C307.83 342.121 308.54 342.161 309.259 342.211H309.34C309.67 342.231 309.99 342.251 310.32 342.281" fill="#2A4D52"/></g></g></g><g id="Upper Body Adult" transform="translate(0 55) scale(1 1)"><g id="Upper Body Adult/Long Sleeve Shirt"><g id="Group 92"><path id="Fill 1" fill-rule="evenodd" clip-rule="evenodd" d="M213.57 124.165C213.259 123.995 212.96 123.815 212.65 123.645C212.389 123.495 212.13 123.335 211.88 123.165C212.13 123.325 212.389 123.485 212.65 123.635C212.96 123.815 213.259 123.985 213.57 124.165" fill="#f9dbcf"/><path id="Fill 3" fill-rule="evenodd" clip-rule="evenodd" d="M242.53 140.745C242.53 140.745 242.53 140.755 242.52 140.755V140.745H242.53Z" fill="#f9dbcf"/><path id="Fill 5" fill-rule="evenodd" clip-rule="evenodd" d="M254.69 147.375C254.54 147.295 254.389 147.215 254.23 147.135C254.179 147.105 254.129 147.075 254.08 147.045C254.129 147.065 254.19 147.095 254.24 147.125C254.389 147.205 254.54 147.285 254.69 147.375" fill="#f9dbcf"/><path id="Fill 7" fill-rule="evenodd" clip-rule="evenodd" d="M286.44 162.065C284.03 161.135 281.669 160.165 279.339 159.175C281.669 160.155 284.03 161.125 286.44 162.065" fill="#f9dbcf"/><path id="Fill 9" fill-rule="evenodd" clip-rule="evenodd" d="M321.88 143.595C316.521 144.485 311.271 145.955 306.22 147.965C305.89 148.095 305.32 147.275 305.72 147.115C310.771 145.105 316.021 143.645 321.39 142.755C321.75 142.695 322.271 143.535 321.88 143.595" fill="#f9dbcf"/><path id="Fill 11" fill-rule="evenodd" clip-rule="evenodd" d="M397.24 67.3751C397.13 67.9651 397.01 68.6251 396.88 69.3551C397.01 68.6351 397.12 67.9751 397.24 67.3751" fill="#f9dbcf"/><path id="Fill 13" fill-rule="evenodd" clip-rule="evenodd" d="M411.71 40.6348C409.351 45.3148 406.71 49.9048 404.07 54.4548C402.28 57.5548 400.28 60.8048 398.03 63.8048C397.92 63.9348 397.74 64.7448 397.481 66.0648H366.12C367.07 60.7648 368.29 55.5248 370.16 50.4048C372.84 43.0348 376.09 35.2148 382.521 30.3048C382.771 30.1148 383.08 29.9148 383.39 30.0048C384.771 30.4348 384.55 34.7048 384.5 35.7748C384.41 37.7348 383.99 39.7848 383.55 41.6148C382.97 44.0748 381.29 48.3848 382.58 50.8348C383.811 53.1948 386.25 52.1548 388.811 49.8848C388.96 49.7548 389.101 49.6348 389.24 49.4948C389.25 49.4948 389.25 49.4848 389.25 49.4848C392.811 46.1748 396.47 40.7648 397.34 38.9948C400.75 32.0748 404.811 27.2148 406.43 28.1048C407.39 28.6348 402.231 41.5048 401.24 44.8048C401.55 44.5948 401.94 44.2348 402.38 43.7648C403.3 42.7948 404.46 41.3548 405.71 39.7948C405.74 39.7448 405.78 39.6948 405.82 39.6548C408.99 35.6648 412.72 30.8548 414.561 30.4248C416.76 29.8748 412.13 39.8348 411.71 40.6348" fill="#f9dbcf"/><path id="Fill 16" fill-rule="evenodd" clip-rule="evenodd" d="M321.88 143.595C316.52 144.485 311.27 145.955 306.221 147.965C305.891 148.095 305.32 147.275 305.721 147.115C310.77 145.105 316.02 143.645 321.391 142.755C321.75 142.695 322.27 143.535 321.88 143.595V143.595ZM227.74 205.245C231.91 211.495 236.41 217.535 241.26 223.275C244.34 226.915 247.57 230.425 250.941 233.795C252.92 235.765 254.95 237.685 257.03 239.545C257.311 239.795 257.311 240.225 257.08 240.235C257.01 240.245 256.91 240.195 256.78 240.085C256.35 239.695 255.91 239.305 255.481 238.905C255.21 238.665 254.95 238.415 254.68 238.175C253.43 237.015 252.2 235.835 250.99 234.635C246.82 230.505 242.88 226.155 239.16 221.625C234.35 215.765 229.91 209.615 225.77 203.275C221.62 196.895 217.77 190.315 214.17 183.605L203.96 163.035C200.75 156.065 197.71 149.025 194.76 141.935C194.68 141.745 194.721 141.575 194.941 141.565C195.16 141.545 195.37 141.855 195.45 142.025C195.811 142.905 196.18 143.775 196.54 144.655C199.481 151.635 202.51 158.565 205.731 165.425C208.971 172.345 212.391 179.185 216.061 185.885C219.691 192.495 223.561 198.975 227.74 205.245V205.245ZM209.551 273.615C209.92 273.585 210.42 274.425 210.04 274.465C205.41 274.885 200.77 275.185 196.12 275.345C187.981 275.645 179.83 275.535 171.7 275.025C163.51 274.515 155.36 273.605 147.26 272.285C146.92 272.235 146.471 271.365 146.941 271.445C151.45 272.175 155.971 272.785 160.52 273.265C176.801 274.995 193.24 275.115 209.551 273.615V273.615ZM220.02 272.985C226.83 272.365 233.641 271.745 240.46 271.125C240.82 271.095 241.33 271.935 240.95 271.965C234.13 272.585 227.32 273.215 220.51 273.835C220.141 273.865 219.63 273.025 220.02 272.985V272.985ZM206.25 95.7548C206.53 96.4048 181.79 97.4848 182.03 96.5348C168.051 98.2148 158.54 103.395 152.151 123.895C148.891 134.355 154.311 174.685 159.32 206.155C159.36 205.825 159.401 205.495 159.43 205.165C159.78 201.255 159.42 197.345 159 193.465C157.27 177.665 155.471 161.885 153.71 146.095C153.641 145.515 154.42 146.045 154.46 146.395C155.45 155.305 156.45 164.215 157.441 173.125L158.79 185.125C159.231 189.095 159.731 193.065 160.08 197.045C160.311 199.745 160.42 202.465 160.21 205.165V205.175C160.141 206.285 160 207.385 159.811 208.475C159.79 208.595 159.77 208.705 159.74 208.825C159.07 212.365 157.91 215.775 156.691 219.145C151.26 234.215 145.76 249.245 140.29 264.295C140.28 264.325 140.26 264.345 140.24 264.365C140.24 264.375 140.24 264.375 140.231 264.375L138 274.155C138 274.155 215.74 284.555 250.1 273.865C250.441 274.125 250.78 274.395 251.13 274.665L261.751 262.101C261.751 262.101 264.891 256.845 264.301 258.025L270.49 250.205C269.95 249.835 269.401 249.465 268.86 249.085C266.43 247.395 264.03 245.655 261.68 243.865C260.401 235.665 258.68 226.935 257.16 219.625C257.231 220.915 257.301 222.205 257.36 223.495C257.37 223.745 257.08 223.665 256.95 223.595C256.75 223.475 256.61 223.235 256.6 223.005L256.42 219.465C256.33 217.905 256.24 216.345 256.13 214.785V214.765C256.28 208.705 255.566 202.778 255.481 201.816C254.282 188.321 248.332 150.504 245.11 142.185C244.636 140.959 244.43 139.645 244.061 138.385C242 131.265 239.401 124.235 235.691 117.785C232.07 111.455 227.34 105.775 221.37 101.535C221.27 101.465 221.11 101.315 221.04 101.155C221.01 101.085 220.99 101.015 221.01 100.945C221.07 100.735 221.25 100.725 221.42 100.845C222.17 101.375 222.901 101.925 223.61 102.495C223.84 102.685 224.07 102.865 224.301 103.065C224.311 103.065 224.32 103.075 224.33 103.085C229.721 107.575 233.981 113.285 237.27 119.445C240.82 126.075 243.311 133.205 245.301 140.435C245.5 141.165 245.7 141.885 245.88 142.615C247.02 146.915 247.99 151.255 248.87 155.615C248.731 154.235 248.58 152.855 248.441 151.475C248.151 148.745 247.74 146.025 247.2 143.335C249.36 144.525 251.52 145.695 253.67 146.835C253.76 146.865 253.84 146.925 253.91 146.965C253.971 146.995 254.03 147.015 254.08 147.045C254.13 147.065 254.191 147.095 254.24 147.125C254.391 147.205 254.54 147.285 254.691 147.375C254.84 147.445 255 147.525 255.151 147.615C255.51 147.795 255.86 147.985 256.221 148.165C257.441 148.805 258.66 149.435 259.891 150.055C263.391 151.835 266.901 153.565 270.481 155.225C271.13 155.525 271.77 155.825 272.42 156.125C274.7 157.165 277 158.175 279.34 159.175C281.67 160.155 284.03 161.125 286.441 162.065C288.37 162.825 290.32 163.555 292.301 164.275C300.04 167.085 308.24 169.645 317.141 171.935C324.301 173.775 331.52 174.025 338.41 172.875C354.83 170.135 369.38 159.505 376.651 143.545C378.63 139.195 380.5 134.805 382.24 130.355C383.43 127.285 384.561 124.205 385.61 121.095C386.41 118.775 387.16 116.435 387.87 114.095C390.53 105.305 393.28 90.0948 395.26 78.6848C395.62 76.6248 395.95 74.6948 396.25 72.9548C396.35 72.3848 396.45 71.8348 396.54 71.3048C396.551 71.2248 396.57 71.1448 396.58 71.0648C396.641 70.7448 396.691 70.4248 396.75 70.1248C396.79 69.8648 396.84 69.6048 396.88 69.3548C397.01 68.6348 397.12 67.9748 397.24 67.3748C397.26 67.2248 397.29 67.0748 397.32 66.9348C397.37 66.6448 397.42 66.3848 397.471 66.1348C397.471 66.1048 397.481 66.0848 397.481 66.0648H366.12C365.63 68.8548 365.21 71.6448 364.801 74.4548C364.68 75.2648 364.57 76.0748 364.46 76.8748C363.96 80.3848 363.46 83.8848 362.85 87.3748C362.77 87.8548 362.691 88.3248 362.6 88.8048C362.52 89.2748 362.43 89.7548 362.33 90.2348C362.24 90.7148 362.151 91.1848 362.04 91.6648C361.95 92.1148 361.86 92.5748 361.75 93.0248C361.54 93.9948 361.32 94.9648 361.08 95.9248C357.971 108.425 354.551 126.725 344.28 136.275C343.71 136.805 343.11 137.315 342.5 137.785C342.29 137.935 342.09 138.095 341.88 138.245C341.46 138.555 341.03 138.845 340.59 139.115C339.71 139.665 338.79 140.155 337.82 140.585C326.5 145.625 311.04 141.995 295.27 135.155L294.37 134.765C294.09 134.645 293.82 134.515 293.54 134.405C292.75 134.055 291.971 133.695 291.18 133.325C289.61 132.595 288.04 131.835 286.471 131.055C285.691 130.665 284.91 130.265 284.13 129.865C279.59 127.535 275.1 125.055 270.76 122.535C269.311 121.705 267.88 120.865 266.471 120.025C265.86 119.665 265.25 119.305 264.651 118.945C263.45 118.225 262.27 117.515 261.11 116.805C260.53 116.445 259.95 116.095 259.38 115.745C259.12 115.595 258.86 115.425 258.61 115.275C258.41 115.155 258.221 115.045 258.04 114.925H258.03C250.53 110.315 248.082 108.498 238.74 103.145C225.739 95.6958 208.37 96.0448 206.25 95.7548V95.7548Z" fill="#2A4D52"/><path id="Fill 19" fill-rule="evenodd" clip-rule="evenodd" d="M270.76 122.535C269.311 121.705 267.88 120.865 266.47 120.025C265.861 119.665 265.25 119.305 264.651 118.945C265.25 119.295 265.861 119.655 266.47 120.015C267.88 120.855 269.311 121.695 270.76 122.535" fill="#2A4D52"/><path id="Fill 21" fill-rule="evenodd" clip-rule="evenodd" d="M321.88 143.595C316.521 144.485 311.271 145.955 306.22 147.965C305.89 148.095 305.32 147.275 305.72 147.115C310.771 145.105 316.021 143.645 321.39 142.755C321.75 142.695 322.271 143.535 321.88 143.595" fill="#2A4D52"/><path id="Fill 23" fill-rule="evenodd" clip-rule="evenodd" d="M344.28 136.275C343.71 136.805 343.11 137.315 342.5 137.785C343.11 137.305 343.71 136.805 344.28 136.275" fill="#2A4D52"/><path id="Fill 25" fill-rule="evenodd" clip-rule="evenodd" d="M160.21 205.165V205.175C160.14 206.285 160 207.385 159.811 208.475C159.79 208.595 159.771 208.705 159.74 208.825C159.65 208.265 159.561 207.705 159.47 207.145C159.42 206.825 159.37 206.505 159.32 206.175V206.155C159.36 205.825 159.4 205.495 159.43 205.165C159.78 201.255 159.42 197.345 159 193.465C157.271 177.665 155.47 161.885 153.71 146.095C153.64 145.515 154.42 146.045 154.46 146.395C155.45 155.305 156.45 164.215 157.44 173.125L158.79 185.125C159.231 189.095 159.731 193.065 160.08 197.045C160.311 199.745 160.42 202.465 160.21 205.165" fill="#2A4D52"/><path id="Fill 27" fill-rule="evenodd" clip-rule="evenodd" d="M215.63 248.145H214.84C212.851 246.205 210.941 244.175 209.101 242.105C200.09 231.935 192.691 220.355 186.16 208.465C180.401 197.965 175.5 187.035 171.7 175.695C170.64 172.545 169.66 169.365 168.78 166.155C168.57 165.395 168.36 164.635 168.17 163.865C164.311 149.285 161.981 134.335 159.651 119.445C159.561 118.875 160.351 119.395 160.401 119.745C160.691 121.575 160.97 123.395 161.26 125.225C163.62 140.205 166.17 155.205 170.47 169.765C170.8 170.885 171.151 172.005 171.5 173.125C171.7 173.645 171.901 174.155 172.11 174.665L172.05 174.815C176.061 187.035 181.401 198.785 187.67 210.005C193.981 221.295 201.08 232.255 209.68 241.935C211.58 244.075 213.561 246.155 215.63 248.145" fill="#2A4D52"/><path id="Fill 29" fill-rule="evenodd" clip-rule="evenodd" d="M242.53 140.745C242.53 140.745 242.53 140.755 242.52 140.755V140.745H242.53Z" fill="#2A4D52"/><path id="Fill 31" fill-rule="evenodd" clip-rule="evenodd" d="M242.53 140.745C242.53 140.745 242.53 140.755 242.52 140.755V140.745H242.53Z" fill="#2A4D52"/><path id="Fill 33" fill-rule="evenodd" clip-rule="evenodd" d="M257.08 240.235C257.01 240.245 256.91 240.195 256.78 240.085C256.351 239.695 255.91 239.305 255.48 238.905C256.01 239.355 256.55 239.795 257.08 240.235" fill="#2A4D52"/><path id="Fill 35" fill-rule="evenodd" clip-rule="evenodd" d="M160.21 205.175C160.14 206.285 160 207.385 159.811 208.475C159.79 208.595 159.771 208.705 159.74 208.825C159.07 212.365 157.91 215.775 156.69 219.145C151.26 234.215 145.76 249.245 140.29 264.295C140.28 264.325 140.26 264.345 140.24 264.365L141.72 257.885C141.76 257.725 141.8 257.555 141.84 257.395C141.84 257.385 141.84 257.375 141.851 257.365C143.19 251.595 144.9 245.925 146.981 240.385L158.91 208.635C158.92 208.625 158.92 208.615 158.92 208.615L159.47 207.145L160.21 205.175Z" fill="#2A4D52"/><path id="Fill 37" fill-rule="evenodd" clip-rule="evenodd" d="M210.04 274.465C205.41 274.885 200.77 275.185 196.12 275.345C187.98 275.645 179.83 275.535 171.7 275.025C163.51 274.515 155.36 273.605 147.26 272.285C146.92 272.235 146.47 271.365 146.94 271.445C151.45 272.175 155.97 272.785 160.52 273.265C176.8 274.995 193.24 275.115 209.55 273.615C209.92 273.585 210.42 274.425 210.04 274.465" fill="#2A4D52"/><path id="Fill 39" fill-rule="evenodd" clip-rule="evenodd" d="M240.95 271.965C234.13 272.585 227.32 273.215 220.51 273.835C220.139 273.865 219.63 273.025 220.02 272.985C226.83 272.365 233.639 271.745 240.46 271.125C240.82 271.095 241.33 271.935 240.95 271.965" fill="#2A4D52"/><path id="Fill 41" fill-rule="evenodd" clip-rule="evenodd" d="M245.59 266.585L244.89 267.115C242.88 266.475 240.89 265.735 238.96 264.895C238.7 264.785 238.45 264.675 238.2 264.555C229.441 260.635 221.68 254.845 214.84 248.145C212.851 246.205 210.941 244.175 209.101 242.105C200.09 231.935 192.691 220.355 186.16 208.465C180.401 197.965 175.5 187.035 171.7 175.695L172.05 174.815C176.061 187.035 181.401 198.785 187.67 210.005C193.981 221.295 201.08 232.255 209.68 241.935C211.58 244.075 213.561 246.155 215.63 248.145C221.71 254.015 228.53 259.135 236.12 262.845C236.941 263.255 237.771 263.635 238.611 264.005C240.88 264.995 243.21 265.865 245.59 266.585" fill="#2A4D52"/><path id="Fill 43" fill-rule="evenodd" clip-rule="evenodd" d="M254.08 272.445C254.05 272.465 254.02 272.485 253.99 272.485V272.475C253.99 272.455 254.01 272.445 254.02 272.445H254.08Z" fill="#2A4D52"/><path id="Fill 45" fill-rule="evenodd" clip-rule="evenodd" d="M286.69 279.695C286.7 279.685 286.719 279.695 286.73 279.695C287.589 280.245 288.37 280.865 289.169 281.475C289.95 282.095 290.669 282.775 291.41 283.445C292.9 284.765 294.379 286.105 295.85 287.445C295.86 287.455 295.86 287.475 295.85 287.485C295.85 287.495 295.83 287.495 295.82 287.485C294.25 286.245 292.69 284.995 291.139 283.735C290.36 283.115 289.56 282.505 288.82 281.835C288.089 281.155 287.35 280.475 286.69 279.735C286.679 279.725 286.679 279.705 286.69 279.695M308.669 276.835C303.98 272.285 299.009 267.985 294.049 263.725C290.669 260.815 279.29 256.015 272.7 251.685C271.96 251.195 271.219 250.705 270.49 250.205L264.299 258.025C264.179 258.275 264.049 258.525 263.919 258.765C263.78 259.035 263.629 259.295 263.469 259.555C262.03 261.995 260.179 264.205 257.99 265.995L252.36 273.115C252.919 272.915 253.46 272.705 253.99 272.485V272.475C253.99 272.455 254.009 272.445 254.02 272.445H254.08C257.46 272.515 260.81 272.775 264.16 273.145C265.85 273.335 267.52 273.575 269.2 273.925C269.629 274.025 270.03 274.095 270.5 274.295C270.56 274.325 270.639 274.375 270.719 274.445L270.83 274.555L271.049 274.755L271.52 275.175L273.429 276.855L288.77 290.145C288.78 290.155 288.78 290.185 288.77 290.195C288.759 290.215 288.73 290.215 288.719 290.205C285.929 287.915 283.139 285.625 280.36 283.325C288.679 291.235 296.56 296.205 298.129 294.505C298.99 293.555 297.74 290.745 295.06 287.075C300.94 292.305 306.25 295.195 307.6 293.705C308.49 292.685 297.169 279.685 294.66 276.205C294.69 276.215 294.7 276.215 294.73 276.225C293.219 275.035 291.73 273.835 290.24 272.625C289.46 271.995 288.66 271.395 287.919 270.725C287.19 270.045 286.45 269.365 285.79 268.615C285.78 268.605 285.79 268.595 285.799 268.585C285.799 268.575 285.82 268.575 285.83 268.585C286.69 269.125 287.48 269.745 288.27 270.365C289.049 270.985 289.77 271.665 290.509 272.335C291.98 273.635 293.429 274.945 294.879 276.275H294.889C298.99 277.655 312.5 288.045 316.179 287.665C318.99 287.395 309.49 277.605 308.669 276.835" fill="#f9dbcf"/><path id="Fill 48" fill-rule="evenodd" clip-rule="evenodd" d="M273.429 276.855L288.77 290.145C288.78 290.155 288.78 290.185 288.77 290.195C288.759 290.215 288.73 290.215 288.719 290.205C285.929 287.915 283.139 285.625 280.36 283.325C280.35 283.325 280.339 283.315 280.329 283.295C280.129 283.105 279.919 282.915 279.719 282.715C276.749 279.855 268.74 272.805 268.549 274.095C268.53 274.215 268.53 274.355 268.539 274.495C268.759 278.665 280.82 287.815 279.969 291.585C279.219 294.915 268.509 287.745 258.6 280.355C255.98 278.405 253.429 276.455 251.129 274.665L252.36 273.115C252.919 272.915 253.459 272.705 253.99 272.485V272.475C253.99 272.455 254.009 272.445 254.02 272.445H254.079C257.459 272.515 260.81 272.775 264.159 273.145C265.85 273.335 267.52 273.575 269.2 273.925C269.629 274.025 270.03 274.095 270.499 274.295C270.56 274.325 270.639 274.375 270.719 274.445L270.829 274.555L271.049 274.755L271.52 275.175L273.429 276.855Z" fill="#f9dbcf"/><path id="Fill 50" fill-rule="evenodd" clip-rule="evenodd" d="M285.79 268.615C285.78 268.605 285.79 268.595 285.8 268.585C285.8 268.575 285.82 268.575 285.83 268.585C286.69 269.125 287.48 269.745 288.27 270.365C289.05 270.985 289.77 271.665 290.51 272.335C291.98 273.635 293.43 274.945 294.88 276.275C294.83 276.255 294.79 276.245 294.74 276.225H294.73C293.22 275.035 291.73 273.835 290.24 272.625C289.46 271.995 288.66 271.395 287.92 270.725C287.19 270.045 286.45 269.365 285.79 268.615" fill="#f9dbcf"/><path id="Fill 52" fill-rule="evenodd" clip-rule="evenodd" d="M295.85 287.445C295.86 287.455 295.86 287.475 295.85 287.485C295.85 287.495 295.829 287.495 295.82 287.485C294.249 286.245 292.69 284.995 291.139 283.735C290.36 283.115 289.56 282.505 288.82 281.835C288.089 281.155 287.35 280.475 286.69 279.735C286.679 279.725 286.679 279.705 286.69 279.695C286.7 279.685 286.719 279.695 286.73 279.695C287.589 280.245 288.37 280.865 289.169 281.475C289.95 282.095 290.669 282.775 291.41 283.445C292.9 284.765 294.379 286.105 295.85 287.445" fill="#f9dbcf"/><path id="Fill 54" fill-rule="evenodd" clip-rule="evenodd" d="M171.5 173.125C171.33 172.675 171.16 172.215 170.98 171.755C169.99 169.145 169.05 166.515 168.17 163.865C164.311 149.285 161.98 134.335 159.65 119.445C159.561 118.875 160.351 119.395 160.4 119.745C160.69 121.575 160.97 123.395 161.26 125.225C163.62 140.205 166.17 155.205 170.47 169.765C170.8 170.885 171.15 172.005 171.5 173.125" fill="#2A4D52"/><path id="Fill 56" fill-rule="evenodd" clip-rule="evenodd" d="M257.08 240.235C257.01 240.245 256.91 240.195 256.78 240.085C256.351 239.695 255.91 239.305 255.48 238.905C256.01 239.355 256.55 239.795 257.08 240.235" fill="#2A4D52"/><path id="Fill 58" fill-rule="evenodd" clip-rule="evenodd" d="M245.59 266.585L244.89 267.115C242.88 266.475 240.89 265.735 238.96 264.895C238.7 264.785 238.45 264.675 238.2 264.555C237.5 263.985 236.811 263.415 236.12 262.845C236.941 263.255 237.771 263.635 238.611 264.005C240.88 264.995 243.21 265.865 245.59 266.585" fill="#2A4D52"/><path id="Fill 60" fill-rule="evenodd" clip-rule="evenodd" d="M209.063 95.9132C210.328 96.3092 229.09 118.757 216.051 119.191C203.477 119.609 187.209 108.909 182.03 96.5352C182.03 96.5352 206.96 95.2562 209.063 95.9132" fill="#f9dbcf"/><path id="Fill 62" fill-rule="evenodd" clip-rule="evenodd" d="M257.08 240.235C256.55 239.795 256.01 239.355 255.48 238.905C255.21 238.665 254.95 238.415 254.68 238.175C253.43 237.015 252.2 235.835 250.99 234.635C246.82 230.505 242.88 226.155 239.16 221.625C234.351 215.765 229.91 209.615 225.77 203.275C221.62 196.895 217.77 190.315 214.17 183.605C210.55 176.855 207.17 169.985 203.96 163.035C200.75 156.065 197.71 149.025 194.76 141.935C194.68 141.745 194.72 141.575 194.94 141.565C195.16 141.545 195.37 141.855 195.45 142.025C195.81 142.905 196.18 143.775 196.54 144.655C199.48 151.635 202.51 158.565 205.73 165.425C208.97 172.345 212.39 179.185 216.06 185.885C219.69 192.495 223.56 198.975 227.74 205.245C231.91 211.495 236.41 217.535 241.26 223.275C244.34 226.915 247.57 230.425 250.94 233.795C252.92 235.765 254.95 237.685 257.03 239.545C257.31 239.795 257.31 240.225 257.08 240.235" fill="#2A8C79"/><path id="Fill 64" fill-rule="evenodd" clip-rule="evenodd" d="M257.08 240.235C257.01 240.245 256.91 240.195 256.78 240.085C256.351 239.695 255.91 239.305 255.48 238.905C256.01 239.355 256.55 239.795 257.08 240.235" fill="#2A8C79"/><path id="Fill 66" fill-rule="evenodd" clip-rule="evenodd" d="M257.36 223.495C257.37 223.745 257.08 223.665 256.95 223.595C256.75 223.475 256.61 223.235 256.6 223.005L256.42 219.465C256.33 217.905 256.24 216.345 256.13 214.785V214.765C255.6 206.765 254.85 198.785 253.88 190.835C252.77 181.675 251.37 172.555 249.679 163.485V163.455C249.63 163.205 249.589 162.955 249.54 162.705C248.259 155.835 246.889 148.955 245.11 142.185C244.77 140.915 244.429 139.645 244.06 138.385C242 131.265 239.4 124.235 235.69 117.785C232.07 111.455 227.339 105.775 221.37 101.535C221.27 101.465 221.11 101.315 221.04 101.155C221.009 101.085 220.99 101.015 221.009 100.945C221.07 100.735 221.25 100.725 221.42 100.845C222.17 101.375 222.9 101.925 223.61 102.495C223.839 102.685 224.07 102.865 224.299 103.065C224.31 103.065 224.32 103.075 224.33 103.085C229.719 107.575 233.98 113.285 237.27 119.445C240.82 126.075 243.31 133.205 245.299 140.435C245.5 141.165 245.7 141.885 245.88 142.615C247.02 146.915 247.99 151.255 248.87 155.615C248.87 155.625 248.88 155.635 248.87 155.645C249.56 159.015 250.19 162.395 250.799 165.765C252.53 175.305 253.94 184.905 255.03 194.535C255.969 202.875 256.679 211.235 257.15 219.595C257.16 219.605 257.16 219.615 257.16 219.625C257.23 220.915 257.299 222.205 257.36 223.495" fill="#2A8C79"/><path id="Fill 68" fill-rule="evenodd" clip-rule="evenodd" d="M321.88 143.595C316.521 144.485 311.271 145.955 306.22 147.965C305.89 148.095 305.32 147.275 305.72 147.115C310.771 145.105 316.021 143.645 321.39 142.755C321.75 142.695 322.271 143.535 321.88 143.595" fill="#2A8C79"/><path id="Fill 70" fill-rule="evenodd" clip-rule="evenodd" d="M245.59 266.585L244.89 267.115C242.88 266.475 240.89 265.735 238.96 264.895C238.7 264.785 238.45 264.675 238.2 264.555C229.441 260.635 221.68 254.845 214.84 248.145C212.851 246.205 210.941 244.175 209.101 242.105C200.09 231.935 192.691 220.355 186.16 208.465C180.401 197.965 175.5 187.035 171.7 175.695C170.64 172.545 169.66 169.365 168.78 166.155C168.57 165.395 168.361 164.635 168.17 163.865C164.311 149.285 161.981 134.335 159.651 119.445C159.561 118.875 160.351 119.395 160.401 119.745C160.691 121.575 160.97 123.395 161.26 125.225C163.62 140.205 166.17 155.205 170.47 169.765C170.8 170.885 171.151 172.005 171.5 173.125C171.68 173.685 171.861 174.245 172.05 174.815C176.061 187.035 181.401 198.785 187.67 210.005C193.981 221.295 201.08 232.255 209.68 241.935C211.58 244.075 213.561 246.155 215.63 248.145C221.71 254.015 228.53 259.135 236.12 262.845C236.941 263.255 237.771 263.635 238.611 264.005C240.88 264.995 243.21 265.865 245.59 266.585" fill="#2A8C79"/><path id="Fill 72" fill-rule="evenodd" clip-rule="evenodd" d="M266.77 249.705C266.759 250.035 266.74 250.375 266.69 250.715C266.53 251.945 266.139 253.215 265.79 254.355C265.389 255.625 264.889 256.845 264.299 258.025C264.179 258.275 264.049 258.525 263.919 258.765C263.78 259.035 263.629 259.295 263.469 259.555C262.03 261.995 260.179 264.205 257.99 265.995L257.78 266.175C256.48 267.225 254.999 268.155 253.35 268.505C251.509 268.895 249.639 268.455 247.86 267.985C246.86 267.715 245.87 267.425 244.889 267.115L245.589 266.585C246.1 266.735 246.62 266.885 247.139 267.025C248.9 267.505 250.77 268.025 252.61 267.715C254.32 267.415 255.82 266.475 257.15 265.405C259.749 263.315 261.86 260.675 263.379 257.735C264.4 255.775 265.16 253.685 265.62 251.525C265.78 250.795 265.9 250.055 265.99 249.305C265.56 248.835 265.009 248.585 264.36 248.535C264.009 248.505 263.549 247.645 264.03 247.685C264.999 247.765 266.79 248.525 266.77 249.705" fill="#2A8C79"/><path id="Fill 74" fill-rule="evenodd" clip-rule="evenodd" d="M160.21 205.165V205.175C160.14 206.285 160 207.385 159.811 208.475C159.79 208.595 159.771 208.705 159.74 208.825C159.07 212.365 157.91 215.775 156.69 219.145C151.26 234.215 145.76 249.245 140.29 264.295C140.28 264.325 140.26 264.345 140.24 264.365C140.24 264.375 140.24 264.375 140.231 264.375C140.01 264.535 139.45 263.945 139.57 263.635C140.33 261.555 141.08 259.475 141.84 257.395C141.84 257.385 141.84 257.375 141.851 257.365C144.14 251.065 146.43 244.755 148.72 238.445C151.41 231.065 154.19 223.705 156.76 216.275C157.62 213.775 158.4 211.225 158.91 208.635C158.92 208.625 158.92 208.615 158.92 208.615C159.08 207.805 159.22 206.995 159.32 206.175V206.155C159.36 205.825 159.4 205.495 159.43 205.165C159.78 201.255 159.42 197.345 159 193.465C157.271 177.665 155.47 161.885 153.71 146.095C153.64 145.515 154.42 146.045 154.46 146.395C155.45 155.305 156.45 164.215 157.44 173.125L158.79 185.125C159.231 189.095 159.731 193.065 160.08 197.045C160.311 199.745 160.42 202.465 160.21 205.165" fill="#2A8C79"/><path id="Fill 76" fill-rule="evenodd" clip-rule="evenodd" d="M210.04 274.465C205.41 274.885 200.77 275.185 196.12 275.345C187.98 275.645 179.83 275.535 171.7 275.025C163.51 274.515 155.36 273.605 147.26 272.285C146.92 272.235 146.47 271.365 146.94 271.445C151.45 272.175 155.97 272.785 160.52 273.265C176.8 274.995 193.24 275.115 209.55 273.615C209.92 273.585 210.42 274.425 210.04 274.465" fill="#2A8C79"/><path id="Fill 78" fill-rule="evenodd" clip-rule="evenodd" d="M240.95 271.965C234.13 272.585 227.32 273.215 220.51 273.835C220.139 273.865 219.63 273.025 220.02 272.985C226.83 272.365 233.639 271.745 240.46 271.125C240.82 271.095 241.33 271.935 240.95 271.965" fill="#2A8C79"/><path id="Fill 80" fill-rule="evenodd" clip-rule="evenodd" d="M409.39 33.6348C409.042 34.9538 408.238 36.0848 407.519 37.2148C406.774 38.3398 405.969 39.4168 405.197 40.5158C403.589 42.6708 402.044 44.8518 400.536 47.0848C401.109 45.8628 401.792 44.6968 402.51 43.5558C403.229 42.4148 404.017 41.3208 404.792 40.2218L407.206 36.9938C407.613 36.4608 408.01 35.9208 408.385 35.3678C408.763 34.8178 409.144 34.2628 409.39 33.6348" fill="#672448"/><path id="Fill 82" fill-rule="evenodd" clip-rule="evenodd" d="M398.297 38.1021C397.853 39.3741 397.262 40.5901 396.616 41.7741C395.962 42.9551 395.226 44.0911 394.407 45.1711C393.557 46.2221 392.664 47.2531 391.616 48.1221C390.566 48.9801 389.403 49.7201 388.126 50.1601C390.508 48.8941 392.405 46.9811 394.012 44.8661C394.849 43.8311 395.569 42.7061 396.286 41.5801C396.994 40.4481 397.664 39.2891 398.297 38.1021" fill="#672448"/><path id="Fill 84" fill-rule="evenodd" clip-rule="evenodd" d="M374.911 62.8145C376.056 61.2965 377.536 60.0705 379.09 58.9875C380.661 57.9185 382.358 57.0465 384.109 56.3075C385.86 55.5685 387.682 54.9875 389.54 54.5885C390.471 54.3945 391.414 54.2715 392.35 54.1265C393.296 54.0325 394.243 53.9775 395.187 53.9245C395.201 53.9245 395.213 53.9345 395.214 53.9485C395.215 53.9605 395.204 53.9725 395.192 53.9745C394.262 54.1565 393.331 54.3125 392.404 54.4715C391.487 54.6885 390.557 54.8345 389.65 55.0765C387.831 55.5335 386.01 55.9985 384.258 56.6795C382.512 57.3625 380.81 58.1805 379.227 59.1955C377.654 60.2125 376.14 61.3785 374.952 62.8435C374.944 62.8555 374.93 62.8575 374.918 62.8505C374.906 62.8435 374.904 62.8265 374.911 62.8145" fill="#672448"/><path id="Fill 86" fill-rule="evenodd" clip-rule="evenodd" d="M288.77 290.145C288.78 290.155 288.78 290.185 288.77 290.195C288.759 290.215 288.73 290.215 288.719 290.205C285.929 287.915 283.139 285.625 280.36 283.325C280.35 283.325 280.339 283.315 280.33 283.295C277.9 281.305 275.48 279.295 273.07 277.275L271.12 275.635L270.639 275.225L270.389 275.005L270.27 274.895C270.27 274.895 270.259 274.885 270.219 274.875C269.91 274.745 269.469 274.665 269.07 274.585C268.889 274.555 268.719 274.525 268.54 274.495C267.07 274.255 265.56 274.105 264.07 273.905C260.719 273.465 257.37 273.055 254.02 272.515C253.999 272.515 253.99 272.505 253.99 272.485V272.475C253.99 272.455 254.009 272.445 254.02 272.445H254.08C257.459 272.515 260.81 272.775 264.16 273.145C265.85 273.335 267.52 273.575 269.2 273.925C269.629 274.025 270.03 274.095 270.499 274.295C270.56 274.325 270.639 274.375 270.719 274.445L270.83 274.555L271.049 274.755L271.52 275.175L273.429 276.855L288.77 290.145Z" fill="#672448"/><path id="Fill 88" fill-rule="evenodd" clip-rule="evenodd" d="M295.85 287.445C295.86 287.455 295.86 287.475 295.85 287.485C295.85 287.495 295.829 287.495 295.82 287.485C294.249 286.245 292.69 284.995 291.139 283.735C290.36 283.115 289.56 282.505 288.82 281.835C288.089 281.155 287.35 280.475 286.69 279.735C286.679 279.725 286.679 279.705 286.69 279.695C286.7 279.685 286.719 279.695 286.73 279.695C287.589 280.245 288.37 280.865 289.169 281.475C289.95 282.095 290.669 282.775 291.41 283.445C292.9 284.765 294.379 286.105 295.85 287.445" fill="#672448"/><path id="Fill 90" fill-rule="evenodd" clip-rule="evenodd" d="M294.96 276.375C294.95 276.385 294.93 276.385 294.92 276.375C294.86 276.325 294.8 276.275 294.74 276.225H294.731C293.22 275.035 291.731 273.835 290.24 272.625C289.46 271.995 288.66 271.395 287.92 270.725C287.19 270.045 286.45 269.365 285.79 268.615C285.78 268.605 285.79 268.595 285.8 268.585C285.8 268.575 285.82 268.575 285.83 268.585C286.69 269.125 287.481 269.745 288.271 270.365C289.05 270.985 289.771 271.665 290.51 272.335C291.981 273.635 293.43 274.945 294.88 276.275H294.89C294.91 276.295 294.93 276.315 294.95 276.335C294.96 276.345 294.97 276.365 294.96 276.375" fill="#672448"/></g></g></g><g id="Profile Head Adult" transform="translate(123 0) scale(1 1)"><g id="Profile Head Adult/Short"><g id="Group 25"><path id="Fill 3" fill-rule="evenodd" clip-rule="evenodd" d="M122.08 100.951C121.704 100.836 120.134 99.7328 121.181 99.8008C121.761 100.246 124.816 101.834 122.08 100.951M60.3911 98.8908L60.3001 99.0908C57.7131 97.0138 53.9761 100.519 57.6501 102.121L57.6411 102.201C53.8671 100.803 57.1791 96.8278 60.1101 98.5708C60.1371 89.6078 42.9231 94.0018 51.1301 105.371L51.0701 105.421C40.7381 93.0268 61.7901 88.7458 60.3911 98.8908M126.98 93.5408C118.344 81.6058 122.726 64.1788 114.641 52.1208C108.26 55.0068 95.4751 57.0648 86.2801 57.2008C86.5281 70.5328 77.4261 85.5718 65.3801 91.8808C44.3111 78.3148 34.1011 116.501 59.1201 115.291C59.2851 115.345 82.1681 130.369 82.3511 130.331V130.371C90.4841 134.239 101.066 140.66 109.86 134.751C119.14 127.081 124.672 113.716 124.11 101.851C129.841 103.626 131.215 96.5438 126.98 93.5408" fill="#f9dbcf"/><path id="Fill 6" fill-rule="evenodd" clip-rule="evenodd" d="M60.3906 98.8908L60.2996 99.0908C57.7126 97.0148 53.9756 100.519 57.6506 102.121L57.6406 102.201C53.8676 100.803 57.1786 96.8278 60.1106 98.5708C60.1366 89.6078 42.9226 94.0018 51.1296 105.371L51.0706 105.421C40.7386 93.0268 61.7896 88.7458 60.3906 98.8908" fill="#f9dbcf"/><path id="Fill 8" fill-rule="evenodd" clip-rule="evenodd" d="M82.3506 130.331V130.371C76.1156 127.412 69.5136 124.759 64.1106 120.751C64.1106 120.751 64.0896 120.751 64.0896 120.741C62.4156 119.141 59.3406 117.702 59.1206 115.291C59.2856 115.345 82.1676 130.37 82.3506 130.331" fill="#f9dbcf"/><path id="Fill 10" fill-rule="evenodd" clip-rule="evenodd" d="M122.08 100.951C121.704 100.836 120.134 99.7328 121.181 99.8008C121.761 100.246 124.816 101.834 122.08 100.951" fill="#f9dbcf"/><path id="Fill 12" fill-rule="evenodd" clip-rule="evenodd" d="M122.08 100.951C121.704 100.836 120.134 99.7328 121.181 99.8008C121.761 100.246 124.816 101.834 122.08 100.951" fill="#672348"/><path id="Fill 14" fill-rule="evenodd" clip-rule="evenodd" d="M60.3906 98.8908L60.2996 99.0908C57.7126 97.0148 53.9756 100.519 57.6506 102.121L57.6406 102.201C53.8676 100.803 57.1786 96.8278 60.1106 98.5708C60.1366 89.6078 42.9226 94.0018 51.1296 105.371L51.0706 105.421C40.7386 93.0268 61.7896 88.7458 60.3906 98.8908" fill="#672348"/><path id="Fill 16" fill-rule="evenodd" clip-rule="evenodd" d="M115.15 51.901C108.475 55.004 95.7914 57.031 86.2804 57.201C86.5284 70.533 77.4254 85.572 65.3794 91.881C44.3114 78.315 34.1004 116.501 59.1204 115.291V116.181L58.9104 115.941C20.5704 113.287 20.6834 49.293 57.3504 43.231C62.2904 37.971 75.7194 33.231 91.8394 31.621C119.378 28.125 137.621 39.996 115.15 51.901" fill="#daaf7d"/><path id="Fill 21" fill-rule="evenodd" clip-rule="evenodd" d="M82.4404 138.221C82.4404 138.165 82.3384 130.381 82.3394 130.331C82.1954 130.375 59.2514 115.329 59.1204 115.291C59.3114 124.766 59.7584 145.3 60.1294 154.551H82.6404L82.4404 138.221Z" fill="#f9dbcf"/><path id="Fill 23" fill-rule="evenodd" clip-rule="evenodd" d="M82.5 138.251C79.429 137.03 70.057 127.192 64.11 120.751C64.11 120.751 64.09 120.751 64.09 120.741C61.311 117.731 59.311 115.491 59.12 115.291C59.285 115.345 82.168 130.369 82.351 130.331C82.368 131.462 82.428 137.25 82.5 138.251" fill="#f2c0b6"/></g></g></g><g id="Profile Expression Adult" transform="translate(186 68) scale(1 1)"><g id="Profile Expression Adult/Smile 1"><path id="Fill 31" fill-rule="evenodd" clip-rule="evenodd" d="M54 45.2199C44.0021 48.3615 41 41 41 41C41 41 45.4587 42.3271 53.2807 42.0265C53.3715 42.4827 53.7705 44.1623 54 45.2199" fill="#EDFBFB"/><path id="Fill 33" fill-rule="evenodd" clip-rule="evenodd" d="M49.9994 20C48.046 14.2564 40.1194 14.6799 37.0526 19.7664C36.0355 11.5831 50.1071 12.5165 49.9994 20" fill="#561D3E"/><path id="Fill 35" fill-rule="evenodd" clip-rule="evenodd" d="M48.6309 2.76259C44.997 1.92337 39.9866 3.92116 38 7C40.7228 -3.65141 54.2961 0.397901 48.6309 2.76259" fill="#561D3E"/><path id="Fill 37" fill-rule="evenodd" clip-rule="evenodd" d="M47.6387 13.9614C47.2072 13.1855 46.3966 12.9216 46 12.1691C46.1678 11.2528 48.9798 14.3789 47.6387 13.9614" fill="#561D3E"/></g></g></g></svg>